<svg id="Layer_1" data-name="Layer 1" xmlns="http://www.w3.org/2000/svg" viewBox="0 0 220 22"><path d="M13,16a10.61,10.61,0,0,1-3-.39,6.22,6.22,0,0,1-2-1,5,5,0,0,1-1.21-1.39,5.32,5.32,0,0,1-.61-1.5,7.38,7.38,0,0,1-.14-1.43v-.11h4.74c.15,1.46,1.08,2.18,2.79,2.18h.13a2.71,2.71,0,0,0,2.14-.76,3,3,0,0,0,.67-2.08V3.2h4.83V9.67a11,11,0,0,1-.07,1.19,8,8,0,0,1-.27,1.22,5.76,5.76,0,0,1-.53,1.21,5.25,5.25,0,0,1-.88,1.07,5.68,5.68,0,0,1-1.3.87,8,8,0,0,1-1.81.58A11.65,11.65,0,0,1,14,16Z"/><path d="M36.65,12.55a3,3,0,0,1-.12.86,2.79,2.79,0,0,1-.54.93,3.45,3.45,0,0,1-1.12.88,7.48,7.48,0,0,1-2,.62,15.48,15.48,0,0,1-3,.26H29a12.76,12.76,0,0,1-2.85-.29,6.24,6.24,0,0,1-2-.75A4,4,0,0,1,23,14a3.68,3.68,0,0,1-.62-1.26,5.13,5.13,0,0,1-.17-1.32v-.34q0-4.61,6.75-4.61h.94a14.11,14.11,0,0,1,2.25.17A8.18,8.18,0,0,1,33.85,7a4.7,4.7,0,0,1,1.21.68,4.61,4.61,0,0,1,.83.82,3.64,3.64,0,0,1,.49.94,5,5,0,0,1,.25,1,7.37,7.37,0,0,1,.06,1v.51H26.74c.16,1.12,1.09,1.68,2.77,1.68h0a6.07,6.07,0,0,0,1.1-.1,4,4,0,0,0,.75-.23,2,2,0,0,0,.43-.3,1.08,1.08,0,0,0,.22-.28,1.21,1.21,0,0,0,.07-.2h4.55Zm-9.86-2.49h5.27c-.19-.91-1.07-1.37-2.63-1.37S27,9.15,26.79,10.06Z"/><path d="M37.66,6.7h4.59V8.31c.17-.15.3-.28.4-.36a4.47,4.47,0,0,1,.63-.45,4.53,4.53,0,0,1,.94-.5,7,7,0,0,1,1.2-.34A7.08,7.08,0,0,1,47,6.5h.1a6.29,6.29,0,0,1,2.14.33,3.36,3.36,0,0,1,2.12,2A3,3,0,0,1,51.56,10v5.88H46.92V11.48a2.18,2.18,0,0,0-.53-1.54,2.22,2.22,0,0,0-1.68-.57,2.47,2.47,0,0,0-1.78.61,2.14,2.14,0,0,0-.65,1.62v4.24H37.66Z"/><path d="M52.91,6.7H57.5V8.31L57.89,8a6.23,6.23,0,0,1,.63-.45,4.86,4.86,0,0,1,.95-.5,7,7,0,0,1,1.2-.34,7.08,7.08,0,0,1,1.55-.16h.1a6.29,6.29,0,0,1,2.14.33,3.36,3.36,0,0,1,2.12,2A3.15,3.15,0,0,1,66.81,10v5.88H62.17V11.48a2.14,2.14,0,0,0-.54-1.54A2.18,2.18,0,0,0,60,9.37a2.51,2.51,0,0,0-1.79.61,2.13,2.13,0,0,0-.64,1.62v4.24H52.91Z"/><path d="M68.77,16.22h2.07c.28,0,.43-.1.43-.29v0a3.31,3.31,0,0,0-.4-.92L66.56,6.7h4.93L74,12.58,76.4,6.7H81l-4.4,9.54a6.06,6.06,0,0,1-1.5,2.14,3.11,3.11,0,0,1-2,.66h-4.3Z"/><path d="M100.5,3.2V6.29H91.56V7.87h8.76V11H91.56v4.86H86.79V3.2Z"/><path d="M105.54,16h-.19a5,5,0,0,1-3.19-.85,2.6,2.6,0,0,1-1-2.09v-.2A2.15,2.15,0,0,1,102,11a5.42,5.42,0,0,1,2.84-.81l4.41-.39c.34-.05.51-.2.51-.44a.49.49,0,0,0-.12-.34,1,1,0,0,0-.56-.25,6.25,6.25,0,0,0-1.31-.11h-.07a5.93,5.93,0,0,0-1.13.09,1.23,1.23,0,0,0-.63.28,1.46,1.46,0,0,0-.22.28,1.07,1.07,0,0,0-.08.28h-4.28v-.1a3.23,3.23,0,0,1,.08-.8,2.24,2.24,0,0,1,.41-.8,2.57,2.57,0,0,1,.93-.74,7,7,0,0,1,1.73-.51,15.3,15.3,0,0,1,2.71-.21h1a17.76,17.76,0,0,1,2.82.2,7.85,7.85,0,0,1,1.8.47,2.71,2.71,0,0,1,1,.72,1.93,1.93,0,0,1,.43.76,3.63,3.63,0,0,1,.08.79v3.38a.35.35,0,0,0,.39.4h.49v2.66H111.3a1.33,1.33,0,0,1-1.48-1.22A5.83,5.83,0,0,1,105.54,16Zm4.2-4.48-3.06.54a2.47,2.47,0,0,0-.87.27.59.59,0,0,0-.26.51v0a.83.83,0,0,0,.34.66,1.77,1.77,0,0,0,1.11.27,3.21,3.21,0,0,0,2-.57,1.62,1.62,0,0,0,.76-1.31Z"/><path d="M120.57,5.93h-4.63V3.2h4.63Zm0,9.91h-4.63V6.7h4.63Z"/><path d="M126.51,8.38a5.28,5.28,0,0,1,.64-.74,5.18,5.18,0,0,1,3.19-1.14h.2a4.59,4.59,0,0,1,1.87.34,2.74,2.74,0,0,1,1.19,1,4.22,4.22,0,0,1,.6,1.27,5.69,5.69,0,0,1,.18,1.47v.92H129.9v-.32a2.22,2.22,0,0,0-.4-1.36,1.49,1.49,0,0,0-1.25-.51,1.54,1.54,0,0,0-1.25.54,2.17,2.17,0,0,0-.45,1.43v4.6h-4.62V6.7h4.58Z"/><path d="M136.31,16.22h2.07c.28,0,.43-.1.43-.29v0a3.14,3.14,0,0,0-.39-.92L134.1,6.7H139l2.55,5.88,2.36-5.88h4.59l-4.4,9.54a6.06,6.06,0,0,1-1.5,2.14,3.11,3.11,0,0,1-2,.66h-4.3Z"/><path d="M161.47,16.08q-7.72,0-7.72-4.48v-.17h5.3c.09,1.18,1.15,1.78,3.16,1.78h.16a12,12,0,0,0,1.61-.09,2.85,2.85,0,0,0,1-.28,1,1,0,0,0,.42-.37.94.94,0,0,0,.11-.45v0a.86.86,0,0,0-.18-.57,1.73,1.73,0,0,0-.85-.37,10.3,10.3,0,0,0-1.94-.2l-2.35-.06c-4.14-.12-6.2-1.39-6.2-3.81V6.84a3.69,3.69,0,0,1,.18-1.2,2.94,2.94,0,0,1,.68-1,4,4,0,0,1,1.29-.85,9.84,9.84,0,0,1,2.1-.55,19.24,19.24,0,0,1,3-.21h1.51q7.69,0,7.69,4v.14h-5.25c-.11-.9-1.13-1.35-3.07-1.35h-.17a8.55,8.55,0,0,0-1.83.15,1.66,1.66,0,0,0-.8.32.72.72,0,0,0-.15.47v0a.64.64,0,0,0,.18.47,1.55,1.55,0,0,0,.8.33,9.24,9.24,0,0,0,1.77.17l2.28,0a11.48,11.48,0,0,1,5.13,1,3,3,0,0,1,1.55,2.81v.24a4.54,4.54,0,0,1-.17,1.27A3.11,3.11,0,0,1,170,14.2a4,4,0,0,1-1.35,1,9,9,0,0,1-2.28.65,20.67,20.67,0,0,1-3.36.24Z"/><path d="M179.13,16.08q-7.73,0-7.72-4.48v-.17h5.3c.1,1.18,1.15,1.78,3.17,1.78H180a11.9,11.9,0,0,0,1.61-.09,2.92,2.92,0,0,0,1-.28,1,1,0,0,0,.41-.37.84.84,0,0,0,.11-.45v0a.92.92,0,0,0-.17-.57,1.78,1.78,0,0,0-.86-.37,10.2,10.2,0,0,0-1.94-.2l-2.35-.06q-6.2-.18-6.2-3.81V6.84a3.44,3.44,0,0,1,.19-1.2,2.81,2.81,0,0,1,.68-1,3.76,3.76,0,0,1,1.29-.85,9.53,9.53,0,0,1,2.1-.55,19,19,0,0,1,3-.21h1.52q7.68,0,7.68,4v.14h-5.25q-.15-1.35-3.06-1.35h-.17a8.59,8.59,0,0,0-1.84.15,1.66,1.66,0,0,0-.8.32.72.72,0,0,0-.15.47v0a.64.64,0,0,0,.18.47,1.64,1.64,0,0,0,.81.33,9.12,9.12,0,0,0,1.76.17l2.28,0a11.48,11.48,0,0,1,5.13,1,3,3,0,0,1,1.55,2.81v.24a4.2,4.2,0,0,1-.17,1.27,3.11,3.11,0,0,1-.68,1.15,4,4,0,0,1-1.35,1,9,9,0,0,1-2.28.65,20.46,20.46,0,0,1-3.35.24Z"/><path d="M189.21,15.84V14.37q0-.48,0-.81a4.47,4.47,0,0,1,.17-.89,3.34,3.34,0,0,1,.4-1,5.9,5.9,0,0,1,.75-1,5.47,5.47,0,0,1,1.21-.93A12.17,12.17,0,0,1,193.55,9a18.35,18.35,0,0,1,2.44-.7c.66-.15,1.48-.32,2.45-.49a5.56,5.56,0,0,0,1.45-.42.63.63,0,0,0,.32-.53.54.54,0,0,0-.18-.42,2.12,2.12,0,0,0-.82-.29A10,10,0,0,0,197.44,6a6.68,6.68,0,0,0-1.44.13,3.59,3.59,0,0,0-.9.3,1.33,1.33,0,0,0-.48.43,2.16,2.16,0,0,0-.22.42c0,.1,0,.22-.06.37h-4.92V7.57q0-4.61,7.51-4.61h.73a22,22,0,0,1,3.24.21,9.64,9.64,0,0,1,2.21.56,3.81,3.81,0,0,1,1.31.88,2.93,2.93,0,0,1,.68,1.06,4.13,4.13,0,0,1,.17,1.22V7a3,3,0,0,1-.49,1.78A3.81,3.81,0,0,1,203,9.91a17.87,17.87,0,0,1-3.53.87l-2.72.46c-2.25.38-3.38.86-3.38,1.43H201v-1.5h4.47v4.67Z"/><path d="M206.23,8.36V5.73a4.17,4.17,0,0,0,4-2.53h3.84V15.84h-4.79V8.36Z"/></svg>